<svg width="16" height="15" viewBox="0 0 16 15" fill="none" xmlns="http://www.w3.org/2000/svg">
<path d="M14.3334 7.06155V10.4826C14.3334 12.7633 13.6667 13.3335 11.0001 13.3335H4.33341C1.66674 13.3335 1.00008 12.7633 1.00008 10.4826V4.78086C1.00008 2.50017 1.66674 1.92999 4.33341 1.92999H5.33341C6.33341 1.92999 6.55341 2.18087 6.93341 2.6142L7.93341 3.75455C8.18674 4.03963 8.33341 4.21069 9.00008 4.21069H11.0001C13.6667 4.21069 14.3334 4.78086 14.3334 7.06155Z" stroke="#787486" stroke-miterlimit="10"/>
<path d="M5.33333 1.92999H11.3333C12.6667 1.92999 13.3333 2.50017 13.3333 3.64051V4.42735" stroke="#787486" stroke-miterlimit="10" stroke-linecap="round" stroke-linejoin="round"/>
<path d="M9.33333 9.34222H6" stroke="#787486" stroke-miterlimit="10" stroke-linecap="round" stroke-linejoin="round"/>
</svg>
