<svg width="16" height="16" viewBox="0 0 16 16" fill="none" xmlns="http://www.w3.org/2000/svg">
<path d="M8 15.2066C7.54 15.2066 7.10666 14.9733 6.79999 14.5666L5.79999 13.2333C5.77999 13.2066 5.7 13.1733 5.66666 13.1666H5.33333C2.55333 13.1666 0.833328 12.4133 0.833328 8.66665V5.33331C0.833328 2.38665 2.38666 0.833313 5.33333 0.833313H10.6667C13.6133 0.833313 15.1667 2.38665 15.1667 5.33331V8.66665C15.1667 11.6133 13.6133 13.1666 10.6667 13.1666H10.3333C10.28 13.1666 10.2333 13.1933 10.2 13.2333L9.2 14.5666C8.89333 14.9733 8.46 15.2066 8 15.2066ZM5.33333 1.83331C2.94666 1.83331 1.83333 2.94665 1.83333 5.33331V8.66665C1.83333 11.68 2.86666 12.1666 5.33333 12.1666H5.66666C6.00666 12.1666 6.39333 12.36 6.59999 12.6333L7.59999 13.9666C7.83333 14.2733 8.16666 14.2733 8.4 13.9666L9.4 12.6333C9.62 12.34 9.96666 12.1666 10.3333 12.1666H10.6667C13.0533 12.1666 14.1667 11.0533 14.1667 8.66665V5.33331C14.1667 2.94665 13.0533 1.83331 10.6667 1.83331H5.33333Z" fill="#787486"/>
<path d="M7.99999 8.00002C7.62666 8.00002 7.33333 7.70002 7.33333 7.33335C7.33333 6.96669 7.63333 6.66669 7.99999 6.66669C8.36666 6.66669 8.66666 6.96669 8.66666 7.33335C8.66666 7.70002 8.37333 8.00002 7.99999 8.00002Z" fill="#787486"/>
<path d="M10.6667 8.00002C10.2933 8.00002 10 7.70002 10 7.33335C10 6.96669 10.3 6.66669 10.6667 6.66669C11.0333 6.66669 11.3333 6.96669 11.3333 7.33335C11.3333 7.70002 11.04 8.00002 10.6667 8.00002Z" fill="#787486"/>
<path d="M5.33334 8.00002C4.96001 8.00002 4.66667 7.70002 4.66667 7.33335C4.66667 6.96669 4.96667 6.66669 5.33334 6.66669C5.70001 6.66669 6.00001 6.96669 6.00001 7.33335C6.00001 7.70002 5.70667 8.00002 5.33334 8.00002Z" fill="#787486"/>
</svg>
