<svg width="16" height="15" viewBox="0 0 16 15" fill="none" xmlns="http://www.w3.org/2000/svg">
<path d="M8 13.7953C7.54 13.7953 7.10666 13.5957 6.79999 13.2479L5.79999 12.1076C5.77999 12.0848 5.7 12.0563 5.66666 12.0506H5.33333C2.55333 12.0506 0.833328 11.4063 0.833328 8.20188V5.35102C0.833328 2.83085 2.38666 1.50235 5.33333 1.50235H10.6667C13.6133 1.50235 15.1667 2.83085 15.1667 5.35102V8.20188C15.1667 10.722 13.6133 12.0506 10.6667 12.0506H10.3333C10.28 12.0506 10.2333 12.0734 10.2 12.1076L9.2 13.2479C8.89333 13.5957 8.46 13.7953 8 13.7953ZM5.33333 2.35761C2.94666 2.35761 1.83333 3.3098 1.83333 5.35102V8.20188C1.83333 10.7791 2.86666 11.1953 5.33333 11.1953H5.66666C6.00666 11.1953 6.39333 11.3606 6.59999 11.5944L7.59999 12.7348C7.83333 12.997 8.16666 12.997 8.4 12.7348L9.4 11.5944C9.62 11.3435 9.96666 11.1953 10.3333 11.1953H10.6667C13.0533 11.1953 14.1667 10.2431 14.1667 8.20188V5.35102C14.1667 3.3098 13.0533 2.35761 10.6667 2.35761H5.33333Z" fill="#787486"/>
<path d="M7.99999 7.63171C7.62666 7.63171 7.33333 7.37513 7.33333 7.06154C7.33333 6.74794 7.63333 6.49136 7.99999 6.49136C8.36666 6.49136 8.66666 6.74794 8.66666 7.06154C8.66666 7.37513 8.37333 7.63171 7.99999 7.63171Z" fill="#787486"/>
<path d="M10.6667 7.63171C10.2933 7.63171 10 7.37513 10 7.06154C10 6.74794 10.3 6.49136 10.6667 6.49136C11.0333 6.49136 11.3333 6.74794 11.3333 7.06154C11.3333 7.37513 11.04 7.63171 10.6667 7.63171Z" fill="#787486"/>
<path d="M5.33334 7.63171C4.96001 7.63171 4.66667 7.37513 4.66667 7.06154C4.66667 6.74794 4.96667 6.49136 5.33334 6.49136C5.70001 6.49136 6.00001 6.74794 6.00001 7.06154C6.00001 7.37513 5.70667 7.63171 5.33334 7.63171Z" fill="#787486"/>
</svg>
