<svg width="16" height="16" viewBox="0 0 16 16" fill="none" xmlns="http://www.w3.org/2000/svg">
<path d="M9.99335 12.3167H11C13.3829 12.3167 15.3167 10.3829 15.3167 8.00001C15.3167 5.61717 13.3829 3.68334 11 3.68334H10C9.63587 3.68334 9.35001 3.97847 9.35001 4.33334C9.35001 4.68952 9.64384 4.98334 10 4.98334H11C12.6638 4.98334 14.0167 6.33619 14.0167 8.00001C14.0167 9.66383 12.6638 11.0167 11 11.0167H9.99335C9.63717 11.0167 9.34335 11.3105 9.34335 11.6667C9.34335 12.0229 9.63717 12.3167 9.99335 12.3167Z" fill="#5030E5" stroke="#5030E5" stroke-width="0.3"/>
<path d="M5.00001 12.3167H6.00001C6.35619 12.3167 6.65001 12.0229 6.65001 11.6667C6.65001 11.3105 6.35619 11.0167 6.00001 11.0167H5.00001C3.33619 11.0167 1.98334 9.66383 1.98334 8.00001C1.98334 6.33619 3.33619 4.98334 5.00001 4.98334H6.00001C6.35619 4.98334 6.65001 4.68952 6.65001 4.33334C6.65001 3.97717 6.35619 3.68334 6.00001 3.68334H5.00001C2.61717 3.68334 0.683343 5.61717 0.683343 8.00001C0.683343 10.3829 2.61717 12.3167 5.00001 12.3167Z" fill="#5030E5" stroke="#5030E5" stroke-width="0.3"/>
<path d="M5.33334 8.65H10.6667C11.0229 8.65 11.3167 8.35618 11.3167 8C11.3167 7.64382 11.0229 7.35 10.6667 7.35H5.33334C4.97717 7.35 4.68334 7.64382 4.68334 8C4.68334 8.35618 4.97717 8.65 5.33334 8.65Z" fill="#5030E5" stroke="#5030E5" stroke-width="0.3"/>
</svg>
